<svg xmlns="http://www.w3.org/2000/svg" viewBox="0 0 412 598"><defs><style>.cls-1{opacity:0.2;}.cls-2{fill:none;stroke:#222;stroke-width:2px;}</style></defs><title>placeholder</title><g id="Layer_2" data-name="Layer 2"><g id="Layer_3" data-name="Layer 3"><rect class="cls-1" x="1" y="1" width="410" height="596" rx="21.13"/><path class="cls-2" d="M93,1V7H23.17A16.17,16.17,0,0,0,7,23.17V93H1V22.17A21.17,21.17,0,0,1,22.17,1Z"/><path class="cls-2" d="M411,93h-6V23.17A16.17,16.17,0,0,0,388.83,7H319V1h70.83A21.17,21.17,0,0,1,411,22.17Z"/><path class="cls-2" d="M319,597v-6h69.83A16.17,16.17,0,0,0,405,574.83V505h6v70.83A21.17,21.17,0,0,1,389.83,597Z"/><path class="cls-2" d="M1,505H7v69.83A16.17,16.17,0,0,0,23.17,591H93v6H22.17A21.17,21.17,0,0,1,1,575.83Z"/><polygon class="cls-2" points="201.88 303.62 201.88 370 210.12 370 210.12 303.62 276.5 303.62 276.5 295.38 210.12 295.38 210.12 229 201.88 229 201.88 295.38 135.5 295.38 135.5 303.62 201.88 303.62"/></g></g></svg>